<svg id="Layer_1" data-name="Layer 1" xmlns="http://www.w3.org/2000/svg" viewBox="0 0 841.89 224.64"><defs><style>.cls-1{fill:#070606;}.cls-1,.cls-2,.cls-3{fill-rule:evenodd;}.cls-2{fill:#fff;}.cls-3{fill:#fcd903;}</style></defs><title>Artboard 3</title><path class="cls-1" d="M132.75,6.85H709.14c60.52,0,110,47.31,110,105.14s-49.51,105.13-110,105.13H132.75c-60.52,0-110-47.31-110-105.13S72.23,6.85,132.75,6.85Zm0,0"/><path class="cls-2" d="M129.39,20.28H712.5c50.44,0,91.71,41.27,91.71,91.7h0c0,50.44-41.27,91.71-91.71,91.71H129.39C79,203.7,37.68,162.43,37.68,112h0c0-50.43,41.27-91.7,91.71-91.7Zm0,9.76H712.5a82.19,82.19,0,0,1,82,81.94h0a82.19,82.19,0,0,1-82,81.94H129.39A82.19,82.19,0,0,1,47.44,112h0A82.19,82.19,0,0,1,129.39,30Zm0,0"/><path class="cls-2" d="M522.49,102.83l-1.12,10.35h43.08l.9-8.12c.91-7.49-.26-12.39-6.51-12.49h-26.1c-6.94.17-9.6,3.6-10.25,10.26ZM696.83,69.6H664.68l-18.6,25.55L627,121.32,594,166.75h32.15l15.07-20.7L653,166.75h34l-26.82-46.87Zm-99.39,0h34l12,20.92-19,26.14ZM181.07,110.76l35.73.08c5.49,0,8.6-2.73,9.41-7.89s-1.52-9-7.46-9h-36ZM195,69.6h24.84c19.19,0,33.22,13.4,32.15,33q-.39,20.46-16.23,32.4l13.48,31.71h-32.4l-13.07-30.31H178l-3,30.24-28.88.07h-.26l5.38-53.43Zm158,97.15H284.53q-29.41-1.74-24.89-48.53c3-31.21,15.24-47.56,36.46-48.62h66.56l-2.37,23.59-59,.07C292,92.91,292,98.18,290,105.41h69.18l-2.54,23.26H288c.06,4.3-.86,12.28,5.07,13l62.39,0Zm8.82,0L372.11,69.6H459.2q28.89-.82,27.1,30.81l-6.88,66.34H454.78l6-58.71c.92-7.3-.65-11.09-6.24-10.89h-13l-7.42,69.6H409.5l7.35-69.6h-21l-7.34,69.6Zm127.35,0,6.59-66q4.57-29.83,36-31.14l32.9.07q28.59,1.92,26.86,30.86l-6.62,66.22H559l3-29.7-43.18-.21-2.94,29.91Zm0,0"/><path class="cls-3" d="M212.43,45.24l-60.55,60.55,3.24-36Zm0,0"/></svg>